<!--?xml version="1.0" encoding="utf-8"?-->
<!-- Generator: Adobe Illustrator 24.1.1, SVG Export Plug-In . SVG Version: 6.00 Build 0)  -->
<svg version="1.1" id="_x31_0" xmlns="http://www.w3.org/2000/svg" xmlns:xlink="http://www.w3.org/1999/xlink" x="0px" y="0px" viewBox="0 0 512 512" style="width: 256px; height: 256px; opacity: 1;" xml:space="preserve">
<style type="text/css">
	.st0{fill:#374149;}
</style>
<g>
	<path class="st0" d="M10.856,511.118l11.141-6.191l10.426-10.426c0,0,45.707-6.949,93.609-54.945l166.07-166.066l-53.66-53.66
		C174.926,283.44,88.606,369.76,72.418,385.947c-47.945,47.946-54.945,93.606-54.945,93.606l0.046,0.046l-10.426,10.43L0.903,501.17
		c-1.57,2.809-1.047,6.379,1.238,8.664C4.478,512.17,7.997,512.646,10.856,511.118z M227.109,255.066l2.094,2.094
		c1.046,1.046,1.046,2.668,0,3.71L67.754,422.322c-1.05,1.05-2.714,1.098-3.762,0.046l-2.094-2.094
		c-1.051-1.046-1.051-2.762-0.004-3.808l161.452-161.453C224.394,253.968,226.062,254.014,227.109,255.066z M7.13,505.107
		l-0.226-0.035l-0.094-0.668l5.71-10.282l9-9l5.379,5.383l-9,8.996l-3.988,2.187L7.13,505.107z" style="fill: rgb(75, 75, 75);"></path>
	<path class="st0" d="M312.218,213.522l73.418-73.418l-13.719-13.714l-72.835,72.839l-0.465,0.465l0,0l-0.114,0.114L312.218,213.522
		z M329.945,188.972l-6.89-6.89l49.898-49.898l6.891,6.89L329.945,188.972z M304.293,200.835l16.378-16.375l6.894,6.89
		l-16.378,16.383L304.293,200.835z" style="fill: rgb(75, 75, 75);"></path>
	<path class="st0" d="M469.405,83.343l-48.953,48.95c-1.348,1.281-3.098,2.222-5.117,2.558l-1.414,0.137
		c-0.742,0-1.481-0.066-2.152-0.266l-113.922,113.85l-0.348,0.344l-34.297-34.301l-0.109-0.109l114.198-114.195
		c-0.137-0.27-0.137-0.606-0.203-0.875c-0.133-0.874-0.133-1.82,0-2.695c0.27-1.886,1.145-3.703,2.695-5.183l48.95-48.949h-0.066
		c-1.473-1.477-2.489-3.219-3.238-5.051c-0.098-0.305-0.286-0.578-0.36-0.89l-0.034,0.035c-0.02-0.055-0.051-0.102-0.07-0.156
		L392.71,65.836L244.789,213.761l-0.637,0.633l0,0l-0.114,0.114l53.465,53.464l148.468-148.472l0.133-0.199l20.726-22.82
		l8.516-9.277c-0.02-0.008-0.039-0.024-0.062-0.032l0.113-0.125C473.174,86.304,471.155,85.027,469.405,83.343z" style="fill: rgb(75, 75, 75);"></path>
	<path class="st0" d="M506.971,52.332c6.949-7.711,6.664-19.328-0.668-26.664L486.307,5.672c-7.285-7.285-18.949-7.618-26.617-0.621
		l-10.375,9.437l-3.16,2.809l0.046,0.023l-0.125,0.114l12.187,7.047l10.477-9.528c2.332-2.042,5.851-1.949,8.043,0.242l20,20
		c2.234,2.234,2.332,5.758,0.238,8.039l-9.523,10.48l7.094,12.234L506.971,52.332z" style="fill: rgb(75, 75, 75);"></path>
	<path class="st0" d="M477.253,79.277c1.953,0,3.839-0.538,5.457-1.621l7.07-4.711l0.874-0.672l-0.538-0.941l-2.29-3.84
		l-7.07-12.254l-2.426-4.106l-0.874-1.282c-1.145-1.144-2.762-1.75-4.375-1.75c-1.618,0-3.098,0.606-4.242,1.75l-2.762,2.762
		l-0.031,0.031l-5.664-5.66l-0.902-0.902l2.762-2.758c1.344-1.418,2.019-3.238,1.75-5.121c-0.27-1.414-0.809-2.625-1.684-3.5
		l-1.347-1.008l-4.172-2.426L444.6,24.266l-3.906-2.289l-0.809-0.52l0,0l0,0l-0.137-0.086l-0.606,0.942l-4.71,7.07
		c-1.078,1.684-1.754,3.637-1.684,5.59c0,0.738,0.066,1.414,0.27,2.152c0.469,1.754,1.414,3.301,2.625,4.582
		c0.473,0.469,1.078,0.941,1.684,1.347l0.816,0.496l0.051,0.047l-3.965,3.965l-49.222,49.218c-0.942,0.946-1.547,2.023-1.684,3.234
		l-0.066,1.75c0.203,1.347,0.809,2.492,1.75,3.434l1.214,0.878c1.883,1.141,4.039,1.746,6.262,1.746h0.133
		c3.367,0,6.398-1.344,8.688-3.637l55.75-55.75l0,0l0.902,0.902l4.714,4.648l1.016,1.016l-55.785,55.785
		c-3.973,3.973-4.782,10.234-1.887,15.148l0.875,1.145c1.145,1.145,2.629,1.75,4.242,1.75l1.011-0.133
		c1.145-0.203,2.29-0.742,3.164-1.617L464.46,77.93l3.359-3.359l0.699-0.653l0.519,0.848l1.414,1.683
		c1.75,1.746,4.042,2.762,6.668,2.828H477.253z" style="fill: rgb(75, 75, 75);"></path>
</g>
</svg>
