<!--?xml version="1.0" encoding="utf-8"?-->
<!-- Generator: Adobe Illustrator 18.0.0, SVG Export Plug-In . SVG Version: 6.00 Build 0)  -->

<svg version="1.1" id="_x31_0" xmlns="http://www.w3.org/2000/svg" xmlns:xlink="http://www.w3.org/1999/xlink" x="0px" y="0px" viewBox="0 0 512 512" style="width: 256px; height: 256px; opacity: 1;" xml:space="preserve">
<style type="text/css">
	.st0{fill:#374149;}
</style>
<g>
	<path class="st0" d="M437.247,378.615l-28.222-28.304c24.603-35.893,39.046-79.299,39.113-126.098
		c0.039-26.059-4.422-51.062-12.577-74.334c-0.164-0.48-0.313-0.964-0.484-1.445c-0.957-2.67-1.991-5.305-3.045-7.928
		c-0.316-0.788-0.605-1.585-0.929-2.365c-1.019-2.459-2.116-4.88-3.221-7.292c-0.41-0.898-0.792-1.807-1.218-2.702
		c-1.175-2.478-2.424-4.918-3.685-7.35c-0.398-0.762-0.77-1.538-1.175-2.299c-1.495-2.791-3.06-5.535-4.665-8.256
		c-0.21-0.351-0.402-0.71-0.613-1.062c-18.943-31.685-45.487-58.287-77.129-77.305c-0.054-0.031-0.11-0.062-0.164-0.094
		c-3.025-1.815-6.09-3.564-9.204-5.234c-0.328-0.176-0.664-0.336-0.992-0.511c-2.881-1.53-5.793-3.01-8.751-4.419
		c-0.282-0.133-0.57-0.254-0.855-0.386c-3.037-1.429-6.105-2.802-9.216-4.098c-0.027-0.012-0.05-0.02-0.078-0.027
		C283.781,6.144,254.892,0.043,224.573,0C100.927-0.179,0.541,99.914,0.361,223.56c-0.179,123.654,99.914,224.037,223.56,224.216
		c46.783,0.07,90.226-14.24,126.18-38.726l28.011,28.094l0.16,0.16l0,0l0.055,0.058L437.247,378.615z M392.165,224.13
		c-0.137,92.586-75.567,167.806-168.162,167.674c-92.586-0.137-167.807-75.575-167.67-168.162
		c0.133-92.586,75.571-167.807,168.158-167.674C317.086,56.105,392.298,131.543,392.165,224.13z"></path>
	<path class="st0" d="M499.456,441.003l-41.447-41.564l-0.238-0.238l0,0l-0.054-0.058l-58.774,58.607l-0.086,0.082l0,0l-0.058,0.058
		l41.74,41.862c8.103,8.126,18.783,12.233,29.397,12.249c10.684,0.015,21.31-4.06,29.436-12.163
		C515.695,483.622,515.734,457.262,499.456,441.003z"></path>
	<path class="st0" d="M273.292,103.31c-0.042-0.019-0.09-0.031-0.133-0.05c-15.29-6.359-32.024-9.926-49.59-9.95l-21.395-0.031
		l-20.481-0.106c0.449,0.004,0.878,0.07,1.323,0.078l-2.311-0.004c71.73,0.106,130.002,58.548,129.896,130.275l42.864,0.058
		C353.544,169.466,320.38,122.952,273.292,103.31z"></path>
</g>
</svg>
