<!--?xml version="1.0" encoding="utf-8"?-->
<!-- Generator: Adobe Illustrator 19.1.1, SVG Export Plug-In . SVG Version: 6.00 Build 0)  -->
<svg version="1.1" id="_x31_0" xmlns="http://www.w3.org/2000/svg" xmlns:xlink="http://www.w3.org/1999/xlink" x="0px" y="0px" viewBox="0 0 512 512" style="width: 256px; height: 256px; opacity: 1;" xml:space="preserve">
<style type="text/css">
	.st0{fill:#374149;}
</style>
<g>
	<path class="st0" d="M256,29.619L0.828,219.412l-0.703,0.524l0,0L0,220.034l20.262,27.242l20.262,27.195l7.958-5.906l4.648-3.336
		v217.152h405.789V346.138l0.094-80.953l12.507,9.285l20.215-27.195L512,220.034L256,29.619z M424.984,247.275H391.05v167.242
		h-76.156V275.779H197.102v138.738h-76.11V247.275H87.058h-5.594l-4.226-0.121l9.82-7.297l33.934-25.254l7.125-5.285L256,114.209
		l127.926,95.11l7.125,5.332l33.934,25.207l5.578,4.145l4.203,3.273H424.984z" style="fill: rgb(75, 75, 75);"></path>
</g>
</svg>
