<!--?xml version="1.0" encoding="utf-8"?-->
<!-- Generator: Adobe Illustrator 18.1.1, SVG Export Plug-In . SVG Version: 6.00 Build 0)  -->

<svg version="1.1" id="_x31_0" xmlns="http://www.w3.org/2000/svg" xmlns:xlink="http://www.w3.org/1999/xlink" x="0px" y="0px" viewBox="0 0 512 512" style="width: 256px; height: 256px; opacity: 1;" xml:space="preserve">
<style type="text/css">
	.st0{fill:#374149;}
</style>
<g>
	<path class="st0" d="M493.048,108.328l-58.68,58.641c-8.332,8.328-21.961,8.309-30.269,0l-59.09-59.09
		c-8.32-8.324-8.32-21.946,0-30.266l58.702-58.66c7.614-7.613,1.004-20.523-9.625-18.797
		c-44.343,7.199-90.546,25.957-115.491,50.902c-26.473,26.473-15.172,73.683-6.305,98.953c3.805,10.855,1.074,22.906-7.058,31.038
		L75.441,370.843c-19.618-1.332-39.718,5.508-54.738,20.527c-27.601,27.602-27.601,72.328,0,99.93
		c27.602,27.601,72.328,27.601,99.93,0c15.015-15.02,21.859-35.121,20.527-54.742l189.788-189.788
		c8.133-8.133,20.187-10.867,31.038-7.058c25.274,8.863,72.484,20.164,98.953-6.305c24.946-24.949,43.703-71.121,50.902-115.452
		C513.567,107.325,500.661,100.715,493.048,108.328z M52.922,423.592c9.8-9.801,25.691-9.801,35.488-0.004
		c9.801,9.801,9.82,25.707,0.019,35.508c-9.801,9.801-25.726,9.801-35.527,0C43.105,449.295,43.125,433.389,52.922,423.592z" style="fill: rgb(75, 75, 75);"></path>
</g>
</svg>
