<!--?xml version="1.0" encoding="utf-8"?-->
<!-- Generator: Adobe Illustrator 18.1.1, SVG Export Plug-In . SVG Version: 6.00 Build 0)  -->

<svg version="1.1" id="_x31_0" xmlns="http://www.w3.org/2000/svg" xmlns:xlink="http://www.w3.org/1999/xlink" x="0px" y="0px" viewBox="0 0 512 512" style="width: 256px; height: 256px; opacity: 1;" xml:space="preserve">
<style type="text/css">
	.st0{fill:#374149;}
</style>
<g>
	<path class="st0" d="M312.879,96.959V65.842c0.082-27.121-21.918-49.519-49.039-49.602H0v399.922c0,0.078,0,0.078,0,0.161
		c0,25.437,20.718,46.16,46.16,46.16l75.047,0.098l45.382,0.156l-0.07-0.098h0.199l-37.359-49.278
		c-1.84-2.402-3.442-4.961-4.878-7.602l-65.36-0.078h-2.402V73.201H256.16v80.481h198.879l-0.321,252.558l-67.598-0.078
		c-1.281,2.477-2.801,4.879-4.562,7.199l-23.363,30.887l-14.156,18.55h0.121l-0.121,0.16l120.16,0.161
		c25.442,0,46.641-20.637,46.801-46.078V96.959H312.879z" style="fill: rgb(75, 75, 75);"></path>
	<path class="st0" d="M338,371.682h-34.961c-4.398,0-7.918-3.52-7.918-7.84v-127.68c0-4.32-3.519-7.839-7.839-7.839h-62.563
		c-4.398,0-7.918,3.519-7.918,7.839v127.68c0,4.32-3.519,7.84-7.84,7.84h-35.043c-6.476,0-10.156,7.519-6.238,12.718l16.238,21.442
		l43.122,56.879l22.641,29.918c1.602,2.082,3.922,3.121,6.32,3.121c2.32,0,4.641-1.038,6.238-3.121l22.562-29.758l43.117-56.801
		l16.402-21.68C348.238,379.201,344.481,371.682,338,371.682z" style="fill: rgb(75, 75, 75);"></path>
</g>
</svg>
